<?xml version="1.0" encoding="utf-8"?>
<!-- Generator: Adobe Illustrator 16.0.0, SVG Export Plug-In . SVG Version: 6.00 Build 0)  -->
<!DOCTYPE svg PUBLIC "-//W3C//DTD SVG 1.1//EN" "http://www.w3.org/Graphics/SVG/1.1/DTD/svg11.dtd">
<svg version="1.1" id="Capa_1" xmlns="http://www.w3.org/2000/svg" xmlns:xlink="http://www.w3.org/1999/xlink" x="0px" y="0px"
	 width="1500px" height="700.319px" viewBox="0 0 1500 700.319" enable-background="new 0 0 1500 700.319" xml:space="preserve">
<g>
	<g>
		<g>
			<path fill="#262729" d="M69.201,649.263v-94.346h59.359v18.844h-38.11v17.283h35.134v18.845H90.449v20.529h38.11v18.845H69.201z"
				/>
			<path fill="#262729" d="M192.514,587.211v62.052h-20.256v-94.346h26.064l31.027,65.02v-65.02h20.258v94.346h-26.208
				L192.514,587.211z"/>
			<path fill="#262729" d="M334.048,573.761v75.502h-21.252v-75.502h-25.356v-18.844h71.965v18.844H334.048z"/>
			<path fill="#262729" d="M397.101,649.263v-94.346h59.358v18.844h-38.11v17.283h35.134v18.845H418.35v20.529h38.11v18.845H397.101
				z"/>
			<path fill="#262729" d="M533.875,619.937h-12.469v29.326h-21.248v-94.346h39.239c22.953,0,31.45,9.058,31.45,26.774v11.61
				c0,11.763-4.25,19.693-13.742,23.667l22.81,32.293h-25.217L533.875,619.937z M549.601,583.671c0-7.081-2.694-9.91-11.336-9.91
				h-16.858v27.764h16.858c9.067,0,11.336-3.262,11.336-10.342V583.671z"/>
			<path fill="#262729" d="M653.165,573.761v75.502h-21.252v-75.502h-25.357v-18.844h71.965v18.844H653.165z"/>
			<path fill="#262729" d="M787.046,649.263h-22.098l-5.102-18.411h-31.59l-5.101,18.411h-22.099l28.757-94.346h28.333
				L787.046,649.263z M733.072,613.134h21.673l-10.768-39.513L733.072,613.134z"/>
			<path fill="#262729" d="M822.192,649.263v-94.346h21.241v94.346H822.192z"/>
			<path fill="#262729" d="M909.304,587.211v62.052h-20.259v-94.346h26.064l31.026,65.02v-65.02h20.259v94.346h-26.203
				L909.304,587.211z"/>
			<path fill="#262729" d="M1029.443,596.856l-1.415,52.406h-20.543l3.965-94.346h21.247l22.671,60.073l22.672-60.073h21.24
				l3.974,94.346h-20.546l-1.414-52.406l-16.434,40.225h-18.983L1029.443,596.856z"/>
			<path fill="#262729" d="M1147.28,649.263v-94.346h59.362v18.844h-38.114v17.283h35.13v18.845h-35.13v20.529h38.114v18.845
				H1147.28z"/>
			<path fill="#262729" d="M1270.596,587.211v62.052h-20.258v-94.346h26.063l31.025,65.02v-65.02h20.26v94.346h-26.203
				L1270.596,587.211z"/>
			<path fill="#262729" d="M1414.906,573.761v75.502h-21.257v-75.502h-25.353v-18.844h71.962v18.844H1414.906z"/>
		</g>
	</g>
	<polygon fill="#262729" points="362.253,62.37 362.253,278.671 578.547,62.37 	"/>
	<polygon fill="#262729" points="743.696,62.37 362.253,443.79 535.487,443.79 743.719,235.518 743.719,235.518 951.569,443.79 
		1125.081,443.79 1125.081,237.752 1012.045,237.752 1012.045,333.822 852.647,174.471 1125.081,174.471 1125.081,62.37 
		743.696,62.37 743.696,62.37 743.696,62.37 743.696,62.37 	"/>
</g>
</svg>
