<?xml version="1.0" encoding="UTF-8" standalone="no"?>
<!-- Created with Inkscape (http://www.inkscape.org/) -->

<svg
   version="1.1"
   id="svg9"
   xml:space="preserve"
   width="2560"
   height="2560"
   viewBox="0 0 2560 2560"
   sodipodi:docname="fair-logo-homepage.svg"
   inkscape:version="1.1 (c68e22c387, 2021-05-23)"
   xmlns:inkscape="http://www.inkscape.org/namespaces/inkscape"
   xmlns:sodipodi="http://sodipodi.sourceforge.net/DTD/sodipodi-0.dtd"
   xmlns="http://www.w3.org/2000/svg"
   xmlns:svg="http://www.w3.org/2000/svg"><defs
     id="defs13"><clipPath
       clipPathUnits="userSpaceOnUse"
       id="clipPath23"><path
         d="M 0,1920 H 1920 V 0 H 0 Z"
         id="path21" /></clipPath><clipPath
       clipPathUnits="userSpaceOnUse"
       id="clipPath115"><path
         d="M 0,1920 H 1920 V 0 H 0 Z"
         id="path113" /></clipPath></defs><sodipodi:namedview
     id="namedview11"
     pagecolor="#ffffff"
     bordercolor="#666666"
     borderopacity="1.0"
     inkscape:pageshadow="2"
     inkscape:pageopacity="0.0"
     inkscape:pagecheckerboard="0"
     showgrid="false"
     inkscape:zoom="0.22318058"
     inkscape:cx="1512.2284"
     inkscape:cy="1276.9928"
     inkscape:window-width="1920"
     inkscape:window-height="1046"
     inkscape:window-x="-11"
     inkscape:window-y="-11"
     inkscape:window-maximized="1"
     inkscape:current-layer="g15" /><g
     id="g15"
     inkscape:groupmode="layer"
     inkscape:label="Neverland_Logo"
     transform="matrix(1.3333333,0,0,-1.3333333,0,2560)"><g
       id="g17"><g
         id="g19"
         clip-path="url(#clipPath23)"><g
           id="g25"
           transform="translate(482.1743,343.6338)"><path
             d="m 0,0 c -33.602,-0.804 -5.616,-0.202 -58.992,-0.202 -28.391,0 -51.553,0.549 -51.553,-7.19 0,-9.022 34.758,-4.449 44.435,-18.43 3.336,-4.819 -33.781,-15.668 -44.361,-22.12 -14.168,-8.641 -16.866,-26.565 -16.866,-31.804 0,-17.787 25.12,-30.903 50.169,-30.903 10.578,0 105.299,-4.22 105.299,-4.22 0,0 -22.789,-10.611 -39.158,-13.283 -43.935,-7.171 -57.659,-26.408 -45.998,-39.185 13.832,-15.156 42.555,-11.448 71.41,-11.448 17.5,0 30.651,-0.509 52.483,-4.57 15.347,-2.856 14.835,19.654 42.888,2.069 9.954,-6.24 31.8,5.521 49.008,6.674 28.679,1.921 53.976,0.155 53.976,0.155 0,0 -56.059,-21.321 -6.313,-31.173 23.208,-4.596 88.387,-21.12 134.835,-21.122 35.73,-10e-4 110.995,11.786 141.872,25.73 31.309,14.137 32.311,34.273 66.606,36.244 32.109,1.845 37.236,2.394 62.182,2.509 27.883,0.129 95.028,-8.588 115.768,-9.335 64.599,-2.327 95.973,2.037 109.216,-0.338 22.178,-3.977 29.915,25.748 52.398,24.258 22.483,-1.49 72.333,14.622 40.625,16.723 -21.11,1.399 -21.168,10.64 -0.012,10.64 24.682,0 29.333,-35.341 50.44,-36.796 62.599,-4.314 30.176,4.362 76.214,20.763 29.715,10.584 76.697,16.312 79.138,37.316 1.777,15.286 -51.935,27.98 -40.829,36.52 1.691,1.3 26.667,11.865 27.414,13.862 3.704,9.909 -7.297,10.292 -17.453,9.854 -8.558,-0.369 -19.513,0.646 -19.513,0.646 0,0 50.949,10.484 50.613,12.63 -0.579,3.698 -24.9,18.173 -52.526,18.077 -37.403,-0.131 -31.165,2.986 -92.548,2.986"
             style="fill:none;stroke:#1f1627;stroke-width:13;stroke-linecap:round;stroke-linejoin:miter;stroke-miterlimit:10;stroke-dasharray:none;stroke-opacity:1"
             id="path27" /></g><g
           id="g29"
           transform="translate(1100.7021,144.7627)"><path
             d="m 0,0 c -33.288,9.769 -36.416,21.209 -66.646,-3.316 -6.205,-5.036 -32.508,-7.374 -33.634,-18.435 -0.922,-9.054 7.303,-16.204 12.947,-15.106 16.481,3.207 29.935,8.139 45.313,-1.952 9.106,-5.973 40.581,-6.015 40.581,-6.015 0,0 30.455,6.288 40.78,10.804 10.326,4.517 45.278,-3.302 43.389,10.132 C 81.692,-16.499 54.899,-4.912 50.967,-0.774 37.333,13.568 17.412,-5.109 0,0 Z"
             style="fill:none;stroke:#1f1627;stroke-width:11;stroke-linecap:round;stroke-linejoin:miter;stroke-miterlimit:10;stroke-dasharray:none;stroke-opacity:1"
             id="path31" /></g><g
           id="g33"
           transform="translate(1225.6924,105.5586)"><path
             d="m 0,0 c -11.935,-0.907 -23.808,-2.384 -35.542,-4.419 -2.812,-0.487 -5.94,-1.198 -7.36,-3.285 -1.242,-1.826 -0.682,-4.254 0.909,-5.88 1.592,-1.625 4.027,-2.537 6.49,-2.951 9.331,-1.569 18.733,3.277 28.202,2.473 5.132,-0.435 9.864,-2.502 14.923,-3.345 5.06,-0.843 11.228,0.003 13.731,3.775 2.81,4.235 -0.87,9.827 -6.095,11.914 C 10.032,0.369 3.935,-0.062 0,0 Z"
             style="fill:none;stroke:#1f1627;stroke-width:9;stroke-linecap:round;stroke-linejoin:miter;stroke-miterlimit:10;stroke-dasharray:none;stroke-opacity:1"
             id="path35" /></g><g
           id="g37"
           transform="translate(502.6641,309.4473)"><path
             d="m 0,0 c -1.662,-0.015 10.229,20.033 11.028,21.409 8.275,14.249 13.376,22.416 17.985,29.168 8.908,13.048 133.917,209.094 145.366,221.966 15.425,17.341 33.078,49.946 53.77,33.978 9.646,-7.443 21.191,-14.303 35.537,-18.11 11.999,-3.183 19.215,-2.099 23.784,-1.847 4.612,0.255 22.241,3.371 33.018,13.687 18.56,17.767 81.236,139.698 99.513,164.442 23.288,31.53 32.026,35.924 43.923,35.234 24.702,-1.435 17.052,-45.828 17.052,-56.32 0,-20.159 -2.563,-57.039 21.072,-67.53 15.317,-6.8 4.827,-28.936 1.904,-50.996 -2.068,-15.607 4.717,-12.817 35,-56.098 0.932,-1.33 14.34,-16.926 22.517,-36.608 6.306,-15.182 -9.596,1.735 -31.987,-2.817 -34.837,-7.084 -59.386,-41.22 -76.805,-66.817 C 432.689,133.37 415.796,99.165 397.846,68.74 379.895,38.314 372.283,0.358 334.106,0 306.352,-0.26 109.037,1.023 0,0"
             style="fill:#1f1627;fill-opacity:1;fill-rule:nonzero;stroke:none"
             id="path39" /></g><g
           id="g41"
           transform="translate(502.6641,309.4473)"><path
             d="m 0,0 c -1.662,-0.015 10.229,20.033 11.028,21.409 8.275,14.249 13.376,22.416 17.985,29.168 8.908,13.048 133.917,209.094 145.366,221.966 15.425,17.341 33.078,49.946 53.77,33.978 9.646,-7.443 21.191,-14.303 35.537,-18.11 11.999,-3.183 19.215,-2.099 23.784,-1.847 4.612,0.255 22.241,3.371 33.018,13.687 18.56,17.767 81.236,139.698 99.513,164.442 23.288,31.53 32.026,35.924 43.923,35.234 24.702,-1.435 17.052,-45.828 17.052,-56.32 0,-20.159 -2.563,-57.039 21.072,-67.53 15.317,-6.8 4.827,-28.936 1.904,-50.996 -2.068,-15.607 4.717,-12.817 35,-56.098 0.932,-1.33 14.34,-16.926 22.517,-36.608 6.306,-15.182 -9.596,1.735 -31.987,-2.817 -34.837,-7.084 -59.386,-41.22 -76.805,-66.817 C 432.689,133.37 415.796,99.165 397.846,68.74 379.895,38.314 372.283,0.358 334.106,0 306.352,-0.26 109.037,1.023 0,0 Z"
             style="fill:none;stroke:#1f1627;stroke-width:13;stroke-linecap:round;stroke-linejoin:miter;stroke-miterlimit:10;stroke-dasharray:none;stroke-opacity:1"
             id="path43" /></g><g
           id="g45"
           transform="translate(934.6729,359.5762)"><path
             d="m 0,0 c 18.627,32.345 18.364,32.021 40.418,70.314 25.141,43.655 24.852,30.713 43.932,49.793 8.938,8.938 23.849,23.742 32.793,23.742 15.894,0 17.822,-20.192 26.252,-44.264 7.67,-21.905 9.801,-37.372 23.196,-71.324 13.395,-33.952 14.293,-31.823 21.088,-53.157 6.794,-21.333 10.444,-25.992 -2.982,-25.992 H -15.648 c -6.538,0 -9.667,4.1 -6.074,11.562 2.834,5.885 21.786,39.517 21.786,39.517"
             style="fill:#1f1627;fill-opacity:1;fill-rule:nonzero;stroke:#1f1627;stroke-width:13;stroke-linecap:round;stroke-linejoin:miter;stroke-miterlimit:10;stroke-dasharray:none;stroke-opacity:1"
             id="path47" /></g><g
           id="g49"
           transform="translate(1141.1094,621.2793)"><path
             d="m 0,0 c 23.218,27.881 47.502,55.07 52.729,59.182 5.228,4.111 12.458,2.398 14.077,-11.642 1.619,-14.041 1.537,-77.666 3.16,-91.745 1.624,-14.08 -1.573,-33.565 10.901,-62.393 12.475,-28.828 29.058,-73.241 38.438,-98.461 9.379,-25.218 -2.612,-43.996 33.192,-58.506 35.803,-14.512 147.526,-55.054 46.298,-48.267 -20.245,1.357 -102.779,0.647 -103.783,1.609 -1.005,0.962 -52.881,103.469 -75.218,158.566 -11.168,27.548 -38.397,71.71 -44.671,97.815 -6.274,26.105 7.873,33.643 25.083,53.976"
             style="fill:#1f1627;fill-opacity:1;fill-rule:nonzero;stroke:#1f1627;stroke-width:13;stroke-linecap:round;stroke-linejoin:miter;stroke-miterlimit:10;stroke-dasharray:none;stroke-opacity:1"
             id="path51" /></g><g
           id="g53"
           transform="translate(520.2373,401.5752)"><path
             d="m 0,0 c 9.968,16.097 100.493,156.669 127.354,195.079 14.124,20.196 39.02,46.291 49.898,53.935 18.581,13.054 37.151,4.453 47.491,-4.468 11.341,-9.784 27.185,-28.113 47.447,-19.627 13.063,5.471 30.599,39.36 42.154,63.403 17.51,36.432 50.822,87.681 61.294,103.511 14.65,22.145 38.046,47.825 71.659,49.92 34.019,2.12 59.287,-12.498 66.65,-17.365 6.134,-4.054 31.443,-25.407 48.548,-46.616 18.112,-22.457 51.143,-46.379 73.61,-51.739 22.468,-5.358 56.082,13.901 92.995,-43.482 36.912,-57.383 222.057,-347.782 239.434,-371.407 9.778,-13.292 25.528,-37.063 25.528,-37.063 0,0 -33.317,-0.569 -41.79,-0.569 -8.471,0 -969.749,2.852 -989.046,2.852 -5.483,0 -45.527,0.209 -45.527,0.209 0,0 26.746,39.413 29.698,44.18 C -35.722,-51.986 -3.309,-5.344 0,0 Z"
             style="fill:none;stroke:#1f1627;stroke-width:15;stroke-linecap:round;stroke-linejoin:miter;stroke-miterlimit:10;stroke-dasharray:none;stroke-opacity:1"
             id="path55" /></g><g
           id="g57"
           transform="translate(603.1748,1546.4453)"><path
             d="M 0,0 708.211,0.225 Z"
             style="fill:none;stroke:#1f1627;stroke-width:10;stroke-linecap:butt;stroke-linejoin:miter;stroke-miterlimit:10;stroke-dasharray:none;stroke-opacity:1"
             id="path59" /></g><g
           id="g61"
           transform="translate(502.4673,1618.5972)"><path
             d="m 0,0 404.86,1.405 9.002,17.85 25.305,29.686 1.147,-26.702 23.209,40.094 25.674,-28.784 8.011,9.654 9.381,-42.159 308.844,-2.893 47.952,37.23 -2.586,-22.525 38.727,-13.721 32.952,-0.246"
             style="fill:none;stroke:#1f1627;stroke-width:10;stroke-linecap:butt;stroke-linejoin:miter;stroke-miterlimit:10;stroke-dasharray:none;stroke-opacity:1"
             id="path63" /></g><g
           id="g65"
           transform="translate(438.0396,1783.4941)"><path
             d="M 0,0 25.64,-44.985 35.411,0 l 97.379,-1.25 -0.428,-25.578 14.431,-9.455 2.986,-12.44 -27.172,-33.131 58.024,33.628 10.948,14.432 -4.479,13.933 16.511,18.611 h 70.821 l 45.515,-24.542 45.02,24.871 c 0,0 173.249,-5.768 175.044,-0.329 1.794,5.439 179.495,2.998 179.495,2.998 l 51.295,-0.566 24.656,-13.037 30.305,14.654 267.488,5.854 -18.777,-98.429 -14.84,-16.355 19.735,-8.119 -12.12,-6.667 -33.456,-46.566 h -33.444 v -70.821 H 873.46 l -4.414,-36.912 -49.403,-58.666 -17.004,15.904 -25.24,-67.916 91.478,66.694 1.165,-142.225 c 0,0 -17.359,-75.452 -72.62,-130.713 -72.965,-72.966 -90.169,-79.168 -118.719,-115.356 -17.625,-22.339 -4.162,-46.106 -1.654,-67.64 4.148,-35.585 40.045,-79.565 13.457,-153.676 -2.691,-7.502 17.617,-73.343 26.691,-80.554 3.291,-2.615 6.506,-14.246 7.982,-16.333 0.619,-0.876 17.705,-21.624 27.295,-27.05 9.59,-5.425 -39.321,2.412 -39.321,2.412 l -57.656,47.092 -56.649,57.632 -57.057,14.3 -53.115,-9.924 -39.742,-41.798 -52.761,-89.762 -31.498,-64.408 -21.651,-19.39 -27.131,13.554 -31.092,18.674 43.498,12.803 c 0,0 -0.87,40.893 5.297,53.904 6.166,13.01 30.609,30.924 39.258,46.113 8.65,15.19 18.1,25.439 17.137,45.18 -0.962,19.74 -9.854,46.286 -9.223,77.924 0.63,31.637 4.441,64.361 6.473,88.306 2.032,23.945 2.126,64.698 -14.257,82.565 -16.383,17.868 -73.546,71.633 -109.462,111.971 -35.915,40.338 -62.495,73.914 -62.495,73.914 l 10.808,22.863 -17.441,4.399 -7.886,14.499 -0.763,12.21 31.287,16.534 -13.051,15.591 91.672,57.603 -35.901,2.012 -81.124,57.956 -1.197,89.719 -116.446,1.25 v 70.816 H 26.558 c 0,0 -42.056,52.89 -42.163,55.242 -0.107,2.352 -6.37,21.178 -6.37,21.178 z"
             style="fill:none;stroke:#1f1627;stroke-width:13;stroke-linecap:butt;stroke-linejoin:miter;stroke-miterlimit:10;stroke-dasharray:none;stroke-opacity:1"
             id="path67" /></g><g
           id="g69"
           transform="translate(1098.7402,798.5918)"><path
             d="m 0,0 -32.563,81.226 3.579,34.921 -4.232,63.848 L 6.711,34.462 Z m -79.854,72.742 -20.337,-12.051 h -31.694 l -28.465,7.593 -15.892,24.294 -5.392,45.72 16.099,41.697 19.197,48.079 21.885,31.55 12.6,-11.921 16.289,-38.863 16.766,-41.715 9.322,-43.718 z M -237.839,9 l -7.074,-18.998 -18.533,-42.225 -5.481,53.137 19.209,85.987 7.473,37.843 21.34,42.381 -2.176,-84.477 3.64,-49.246 z M 81.872,-25.107 c 0,0 -24.424,27.273 -19.976,54.832 2.79,17.286 -18.037,82.378 -24.091,100.77 -6.055,18.393 -19.646,69.75 -22.271,84.406 -1.479,8.261 -25.055,75.567 -25.055,75.567 l -42.086,56.732 -3.267,89.268 34.806,80.632 35.969,-12.329 42.921,90.697 -47.217,-42.791 -41.249,42.593 -70.333,-73.579 -73.758,97.218 -32.015,-11.702 -90.597,73.652 41.139,-92.096 34.547,-30.088 14.911,-47.952 -56.896,9.242 -45.729,-28.429 51.672,5.646 29.13,-23.458 30.468,-37.444 9.023,-55.768 -42.766,-67.504 0.328,-33.971 -42.609,-37.634 c 0,0 4.224,-36.995 -9.148,-61.087 -13.081,-23.567 -29.397,-110.453 -30.56,-134.238 -2.276,-46.535 -29.859,-87.105 -31.877,-95.02 -7.665,-30.071 -38.252,-73.777 -38.252,-73.777 l -47.411,-54.865 36.612,37.253 34.527,-2.606 42.044,-28.042 20.73,18.326 31.695,64.848 53.554,90.824 38.982,42.515 51.368,8.379 60.258,-14.682 57.898,-59.307 54.157,-44.694 52.115,-7.667 28.07,-18.083 z"
             style="fill:#1f1627;fill-opacity:1;fill-rule:nonzero;stroke:none"
             id="path71" /></g><g
           id="g73"
           transform="translate(1098.7402,798.5918)"><path
             d="m 0,0 -32.563,81.226 3.579,34.921 -4.232,63.848 L 6.711,34.462 Z m -79.854,72.742 -20.337,-12.051 h -31.694 l -28.465,7.593 -15.892,24.294 -5.392,45.72 16.099,41.697 19.197,48.079 21.885,31.55 12.6,-11.921 16.289,-38.863 16.766,-41.715 9.322,-43.718 z M -237.839,9 l -7.074,-18.998 -18.533,-42.225 -5.481,53.137 19.209,85.987 7.473,37.843 21.34,42.381 -2.176,-84.477 3.64,-49.246 z M 81.872,-25.107 c 0,0 -24.424,27.273 -19.976,54.832 2.79,17.286 -18.037,82.378 -24.091,100.77 -6.055,18.393 -19.646,69.75 -22.271,84.406 -1.479,8.261 -25.055,75.567 -25.055,75.567 l -42.086,56.732 -3.267,89.268 34.806,80.632 35.969,-12.329 42.921,90.697 -47.217,-42.791 -41.249,42.593 -70.333,-73.579 -73.758,97.218 -32.015,-11.702 -90.597,73.652 41.139,-92.096 34.547,-30.088 14.911,-47.952 -56.896,9.242 -45.729,-28.429 51.672,5.646 29.13,-23.458 30.468,-37.444 9.023,-55.768 -42.766,-67.504 0.328,-33.971 -42.609,-37.634 c 0,0 4.224,-36.995 -9.148,-61.087 -13.081,-23.567 -29.397,-110.453 -30.56,-134.238 -2.276,-46.535 -29.859,-87.105 -31.877,-95.02 -7.665,-30.071 -38.252,-73.777 -38.252,-73.777 l -47.411,-54.865 36.612,37.253 34.527,-2.606 42.044,-28.042 20.73,18.326 31.695,64.848 53.554,90.824 38.982,42.515 51.368,8.379 60.258,-14.682 57.898,-59.307 54.157,-44.694 52.115,-7.667 28.07,-18.083 z"
             style="fill:none;stroke:#1f1627;stroke-width:1;stroke-linecap:butt;stroke-linejoin:miter;stroke-miterlimit:10;stroke-dasharray:none;stroke-opacity:1"
             id="path75" /></g><g
           id="g77"
           transform="translate(645.7446,1542.3042)"><path
             d="m 0,0 21.144,-32.795 -37.078,-27.046 37.941,3.313 -14.671,-47.035 37.11,12.945 53.508,-52.214 33.905,8.72 -113.735,-82.699 53.939,-74.893 20.281,9.493 8.631,-16.829 19.849,-2.589 14.491,26.113 12.263,-26.113 -27.185,-31.5 11.65,-17.693 -7.804,-83.422"
             style="fill:none;stroke:#1f1627;stroke-width:9;stroke-linecap:round;stroke-linejoin:miter;stroke-miterlimit:10;stroke-dasharray:none;stroke-opacity:1"
             id="path79" /></g><g
           id="g81"
           transform="translate(1125.2861,1543.0142)"><path
             d="m 0,0 40.577,-19.781 19.275,13.187 15.723,-29.418 -2.536,-45.649 28.403,-12.68 -13.187,-53.764 4.565,-33.476 35.504,24.346 8.623,-102.456 43.114,27.896"
             style="fill:none;stroke:#1f1627;stroke-width:9;stroke-linecap:round;stroke-linejoin:miter;stroke-miterlimit:10;stroke-dasharray:none;stroke-opacity:1"
             id="path83" /></g><g
           id="g85"
           transform="translate(668.3633,1214.5161)"><path
             d="m 0,0 34.686,98.822 9.058,-90.6 5.86,-58.619 49.376,50.323 -124.5,48.093"
             style="fill:none;stroke:#1f1627;stroke-width:9;stroke-linecap:round;stroke-linejoin:miter;stroke-miterlimit:10;stroke-dasharray:none;stroke-opacity:1"
             id="path87" /></g><g
           id="g89"
           transform="translate(1243.5117,1410.1221)"><path
             d="M 0,0 -30.126,-212.214 62.451,-18.215 26.889,5.598 64.267,-89.055"
             style="fill:none;stroke:#1f1627;stroke-width:9;stroke-linecap:round;stroke-linejoin:miter;stroke-miterlimit:10;stroke-dasharray:none;stroke-opacity:1"
             id="path91" /></g><g
           id="g93"
           transform="translate(502.6743,621.3457)"><path
             d="m 0,0 c 0,0 -122.548,-0.906 -130.417,-44.364 -3.854,-21.282 1.271,-32.178 30.704,-47.984 29.433,-15.806 60.72,-23.494 77.332,-28.235 40.771,-11.635 153.749,-29.384 268.712,-24.515 104.575,4.429 231.697,27.691 290.49,41.582 74.786,17.672 167.131,43.506 230.704,67.662 82.917,31.505 148.727,69.551 201.762,116.325 50.998,44.977 -10.733,80.99 -94.148,72.495 -56.496,-5.753 -80.89,-14.11 -80.89,-14.11 0,0 103.504,11.485 123.688,-10.438 C 933.161,111.883 861.47,85.186 831.433,69.018 801.396,52.851 671.958,9.342 635.906,-2.023 543.824,-31.051 502.496,-39.48 432.854,-51.757 351.307,-66.132 254.985,-75.296 221.66,-75.296 c -34.043,0 -105.966,0.348 -163.619,6.114 -64.373,6.438 -104.458,10.59 -128.81,21.22 C -116.933,-27.812 0,0 0,0"
             style="fill:#ffffff;fill-opacity:1;fill-rule:nonzero;stroke:none"
             id="path95" /></g><g
           id="g97"
           transform="translate(502.6743,621.3457)"><path
             d="m 0,0 c 0,0 -122.548,-0.906 -130.417,-44.364 -3.854,-21.282 1.271,-32.178 30.704,-47.984 29.433,-15.806 60.72,-23.494 77.332,-28.235 40.771,-11.635 153.749,-29.384 268.712,-24.515 104.575,4.429 231.697,27.691 290.49,41.582 74.786,17.672 167.131,43.506 230.704,67.662 82.917,31.505 148.727,69.551 201.762,116.325 50.998,44.977 -10.733,80.99 -94.148,72.495 -56.496,-5.753 -80.89,-14.11 -80.89,-14.11 0,0 103.504,11.485 123.688,-10.438 C 933.161,111.883 861.47,85.186 831.433,69.018 801.396,52.851 671.958,9.342 635.906,-2.023 543.824,-31.051 502.496,-39.48 432.854,-51.757 351.307,-66.132 254.985,-75.296 221.66,-75.296 c -34.043,0 -105.966,0.348 -163.619,6.114 -64.373,6.438 -104.458,10.59 -128.81,21.22 C -116.933,-27.812 0,0 0,0 Z"
             style="fill:none;stroke:#1f1627;stroke-width:13;stroke-linecap:round;stroke-linejoin:miter;stroke-miterlimit:10;stroke-dasharray:none;stroke-opacity:1"
             id="path99" /></g><g
           id="g101"
           transform="translate(691.0381,947.6445)"><path
             d="m 0,0 c 0,0 -85.01,39.204 -137.019,50.941 -43.419,9.8 -179.873,50.128 -179.873,-52.205 0,-19.21 21.999,-66.517 75.147,-117.609 35.318,-33.952 147.983,-117.505 253.804,-175.241 232.973,-127.114 367.949,-176.306 443.978,-204.82 68.773,-25.793 391.9,-137.677 458.661,-73.499 72.013,69.226 -145.665,157.919 -145.665,157.919 0,0 95.714,-68.176 88.732,-92.671 -6.983,-24.495 -137.099,15.749 -210.679,37.9 -31.065,9.351 -147.748,45.624 -269.179,99.064 -166.183,73.134 -272.811,127.471 -370.387,190.069 -97.207,62.36 -213.939,134.799 -204.475,169.426 9.465,34.627 38.786,29.09 68.944,29.09 C -97.852,18.364 0,0 0,0"
             style="fill:#ffffff;fill-opacity:1;fill-rule:nonzero;stroke:none"
             id="path103" /></g><g
           id="g105"
           transform="translate(691.0381,947.6445)"><path
             d="m 0,0 c 0,0 -85.01,39.204 -137.019,50.941 -43.419,9.8 -179.873,50.128 -179.873,-52.205 0,-19.21 21.999,-66.517 75.147,-117.609 35.318,-33.952 147.983,-117.505 253.804,-175.241 232.973,-127.114 367.949,-176.306 443.978,-204.82 68.773,-25.793 391.9,-137.677 458.661,-73.499 72.013,69.226 -145.665,157.919 -145.665,157.919 0,0 95.714,-68.176 88.732,-92.671 -6.983,-24.495 -137.099,15.749 -210.679,37.9 -31.065,9.351 -147.748,45.624 -269.179,99.064 -166.183,73.134 -272.811,127.471 -370.387,190.069 -97.207,62.36 -213.939,134.799 -204.475,169.426 9.465,34.627 38.786,29.09 68.944,29.09 C -97.852,18.364 0,0 0,0 Z"
             style="fill:none;stroke:#1f1627;stroke-width:13;stroke-linecap:round;stroke-linejoin:miter;stroke-miterlimit:10;stroke-dasharray:none;stroke-opacity:1"
             id="path107" /></g></g></g></g></svg>
